<svg xmlns="http://www.w3.org/2000/svg" width="98" height="97.998" viewBox="0 0 98 97.998">
  <g id="Group_1359963" data-name="Group 1359963" transform="translate(-8406.634 9508.395)">
    <g id="Group_1359107" data-name="Group 1359107" transform="translate(7603.853 -11475.395)">
      <g id="Group_1204180" data-name="Group 1204180" transform="translate(-1 -5.016)">
        <g id="Group_1204143" data-name="Group 1204143" transform="translate(-67.331 1694.852)">
          <g id="Group_1188789" data-name="Group 1188789" transform="translate(871.113 277.164)">
            <path id="Path_1243039" data-name="Path 1243039" d="M41.05,0h0a41.05,41.05,0,0,1,0,82.1h0a41.05,41.05,0,0,1,0-82.1Z" transform="translate(7.951 7.949)" fill="#92d0d5"/>
            <rect id="Rectangle_400907" data-name="Rectangle 400907" width="88.438" height="88.437" rx="44.218" transform="translate(4.782 4.781)" fill="none"/>
            <g id="Group_1098742" data-name="Group 1098742" transform="translate(0)">
              <g id="Rectangle_400898" data-name="Rectangle 400898" transform="translate(0)" fill="none" stroke="#fff" stroke-width="2" opacity="0.859">
                <rect width="98" height="97.999" rx="48.999" stroke="none"/>
                <rect x="1" y="1" width="96" height="95.999" rx="47.999" fill="none"/>
              </g>
              <g id="Rectangle_400907-2" data-name="Rectangle 400907" transform="translate(0)" fill="none" stroke="#0f1f33" stroke-linecap="round" stroke-width="2">
                <rect width="98" height="97.999" rx="48.999" stroke="none"/>
                <rect x="1" y="1" width="96" height="95.999" rx="47.999" fill="none"/>
              </g>
            </g>
          </g>
        </g>
      </g>
    </g>
    <g id="_7" data-name="7" transform="translate(8421.98 -9492.856)">
      <g id="Group_1359961" data-name="Group 1359961" transform="translate(0.985 0.985)">
        <path id="Path_1369319" data-name="Path 1369319" d="M184.466,188.345l-1.514-5.3a2.111,2.111,0,0,0-1.42-1.441l-8.707-2.625a5.265,5.265,0,0,0-5.244,1.319l-5.126,5.127-4.978-1.659a2.184,2.184,0,0,0-2.631.97,2.108,2.108,0,0,0,1.193,2.991l6.319,2.106a2.1,2.1,0,0,0,2.155-.509l7.092-6.28-8.2,13.342a6.276,6.276,0,0,0-1.851,4.468v5.626a2.106,2.106,0,0,0,4.212,0v-5.626a2.109,2.109,0,0,1,.618-1.491l5.7-5.7v4.328a6.319,6.319,0,0,0,.832,3.134l2.583,4.52a2.106,2.106,0,0,0,3.657-2.09l-2.582-4.519a2.108,2.108,0,0,1-.278-1.046v-6.062a7.374,7.374,0,0,0-.779-3.3l-2.609-5.2,6.31,1.878,1.2,4.194a2.106,2.106,0,0,0,4.05-1.157Z" transform="translate(-135.274 -156.257)" fill="#615260"/>
        <g id="Group_1359959" data-name="Group 1359959" transform="translate(37.945 23.866)">
          <path id="Path_1369320" data-name="Path 1369320" d="M306.185,199.986a2.106,2.106,0,0,0,1.4-2.59l-1.514-5.3a2.111,2.111,0,0,0-1.421-1.441l-4.912-1.481-3.4,3.4,6,1.785,1.2,4.194A2.106,2.106,0,0,0,306.185,199.986Z" transform="translate(-296.341 -189.173)" fill="#4e3d4d"/>
        </g>
        <path id="Path_1369321" data-name="Path 1369321" d="M282.769,244.8l-2.582-4.519a2.107,2.107,0,0,1-.278-1.046v-6.062a7.373,7.373,0,0,0-.779-3.3l-1.825-3.637-3.422.223,2.419,4.821a4.16,4.16,0,0,1,.364,1.89v6.063a5.421,5.421,0,0,0,.7,2.658l3.544,6.085a2.415,2.415,0,0,0,1.121-.335A2.106,2.106,0,0,0,282.769,244.8Z" transform="translate(-238.888 -197.498)" fill="#4e3d4d"/>
        <circle id="Ellipse_13020" data-name="Ellipse 13020" cx="3.159" cy="3.159" r="3.159" transform="translate(27.38 13.69)" fill="#615260"/>
        <g id="Group_1359960" data-name="Group 1359960">
          <path id="Path_1369322" data-name="Path 1369322" d="M40.146,7.5A32.646,32.646,0,1,0,72.791,40.146,32.646,32.646,0,0,0,40.146,7.5ZM17.871,57.807A28.425,28.425,0,0,1,57.807,17.871a1.051,1.051,0,0,1,.073,1.561L19.433,57.88a1.051,1.051,0,0,1-1.561-.073Zm24.2,10.709a28.327,28.327,0,0,1-19.583-6.1,1.051,1.051,0,0,1-.073-1.561L60.858,22.411a1.051,1.051,0,0,1,1.561.073A28.425,28.425,0,0,1,42.067,68.515Z" transform="translate(-7.5 -7.5)" fill="#ff5f7a"/>
          <path id="Path_1369323" data-name="Path 1369323" d="M117.909,71.8a32.654,32.654,0,0,1-46.11,46.11,32.645,32.645,0,1,0,46.11-46.11Z" transform="translate(-63.352 -63.352)" fill="#fb4455"/>
        </g>
        <path id="Path_1369324" data-name="Path 1369324" d="M220.748,112.668a3.125,3.125,0,0,1,.126.835,3.117,3.117,0,0,1-3.994,3.033,3.152,3.152,0,1,0,3.869-3.869Z" transform="translate(-189.373 -98.852)" fill="#4e3d4d"/>
      </g>
      <g id="Group_1359962" data-name="Group 1359962" transform="translate(0)">
        <path id="Path_1369325" data-name="Path 1369325" d="M57.412,9.85A33.631,33.631,0,0,0,9.85,57.412,33.631,33.631,0,0,0,57.412,9.85ZM56.018,56.018A31.66,31.66,0,0,1,11.244,11.244,31.66,31.66,0,0,1,56.018,56.018Z" transform="translate(0)"/>
        <path id="Path_1369326" data-name="Path 1369326" d="M153.206,111.886a2.013,2.013,0,0,0-1.462-.754,2.051,2.051,0,0,0-1.568.6l-3.352,3.352a.985.985,0,1,0,1.393,1.393l3.352-3.352a.081.081,0,0,1,.062-.023c.022,0,.028.009.031.013a27.481,27.481,0,0,1-19.646,44.435q-.918.06-1.831.06a27.407,27.407,0,0,1-17.074-5.944s-.011-.009-.013-.031a.081.081,0,0,1,.023-.062l9.69-9.69c0,.077-.006.154-.006.232v5.626a3.091,3.091,0,1,0,6.183,0v-5.626a1.116,1.116,0,0,1,.329-.795l4.019-4.018v1.949a7.316,7.316,0,0,0,.962,3.623l2.583,4.52a3.091,3.091,0,0,0,5.368-3.067l-2.582-4.519a1.124,1.124,0,0,1-.148-.557v-6.062a8.4,8.4,0,0,0-.883-3.739l-1.131-2.261.6-.6,2.555.767,1.051,3.676a3.1,3.1,0,0,0,2.968,2.244,3.1,3.1,0,0,0,2.977-3.942l-1.514-5.3a3.083,3.083,0,0,0-2.083-2.114l-.986-.3,2.349-2.349a.985.985,0,1,0-1.393-1.393l-32.3,32.3a2.054,2.054,0,0,0-.6,1.568,2.014,2.014,0,0,0,.754,1.462,29.368,29.368,0,0,0,18.3,6.372q.978,0,1.962-.065a29.41,29.41,0,0,0,21.059-47.627Zm-16.33,18.441a6.424,6.424,0,0,1,.675,2.858v6.062a3.1,3.1,0,0,0,.408,1.534l2.582,4.519a1.121,1.121,0,1,1-1.946,1.112l-2.583-4.52a5.341,5.341,0,0,1-.7-2.646v-4.328a.985.985,0,0,0-1.682-.7l-5.7,5.7a3.074,3.074,0,0,0-.906,2.188v5.626a1.121,1.121,0,1,1-2.242,0v-5.626a5.293,5.293,0,0,1,1.356-3.553l9.9-9.9Zm6.612-6.522a1.121,1.121,0,0,1,.757.769l1.514,5.3a1.127,1.127,0,0,1-.746,1.379,1.121,1.121,0,0,1-1.409-.763l-1.2-4.194a.985.985,0,0,0-.664-.673l-2.055-.617,1.8-1.8Z" transform="translate(-96.53 -96.529)"/>
        <path id="Path_1369327" data-name="Path 1369327" d="M80.517,39.9a2.013,2.013,0,0,0-.754-1.461,29.314,29.314,0,0,0-36.211-.232.985.985,0,1,0,1.206,1.558A27.15,27.15,0,0,1,59.632,34.1a27.429,27.429,0,0,1,18.905,5.884s.011.009.013.031a.081.081,0,0,1-.023.062L67.682,50.925l-1-.3a6.241,6.241,0,0,0-6.225,1.565l-4.7,4.7-4.4-1.467a3.178,3.178,0,0,0-3.816,1.447A3.094,3.094,0,0,0,49.3,61.247l6.046,2.015L40.08,78.527a.082.082,0,0,1-.063.023c-.022,0-.028-.009-.031-.013a27.356,27.356,0,0,1,1.872-36.181.985.985,0,1,0-1.411-1.376,29.326,29.326,0,0,0-2,38.782,2.013,2.013,0,0,0,1.461.755q.059,0,.117,0a2.054,2.054,0,0,0,1.451-.6L79.92,41.473a2.054,2.054,0,0,0,.6-1.568ZM57.384,61.215a1.122,1.122,0,0,1-1.145.27L49.92,59.378a1.123,1.123,0,0,1-.632-1.6,1.21,1.21,0,0,1,1.447-.493l4.978,1.659a.986.986,0,0,0,1.008-.238l5.126-5.127A4.273,4.273,0,0,1,66.1,52.506l-8.716,8.708Z" transform="translate(-27.858 -27.858)"/>
        <path id="Path_1369328" data-name="Path 1369328" d="M212.564,112.5a4.145,4.145,0,1,0-4.145-4.144,4.149,4.149,0,0,0,4.145,4.144Zm0-6.319a2.174,2.174,0,1,1-2.174,2.174,2.176,2.176,0,0,1,2.174-2.174Z" transform="translate(-181.04 -90.52)"/>
      </g>
    </g>
  </g>
</svg>
