<svg xmlns="http://www.w3.org/2000/svg" width="98" height="97.999" viewBox="0 0 98 97.999">
  <g id="Group_1360082" data-name="Group 1360082" transform="translate(-13245.634 7248.596)">
    <g id="Group_1359431" data-name="Group 1359431" transform="translate(12442.853 -9215.596)">
      <g id="Group_1204180" data-name="Group 1204180" transform="translate(-1 -5.016)">
        <g id="Group_1204143" data-name="Group 1204143" transform="translate(-67.331 1694.852)">
          <g id="Group_1188789" data-name="Group 1188789" transform="translate(871.113 277.164)">
            <path id="Path_1243039" data-name="Path 1243039" d="M41.05,0h0a41.05,41.05,0,0,1,0,82.1h0a41.05,41.05,0,0,1,0-82.1Z" transform="translate(7.951 7.949)" fill="#92d0d5"/>
            <rect id="Rectangle_400907" data-name="Rectangle 400907" width="88.438" height="88.437" rx="44.218" transform="translate(4.782 4.781)" fill="none"/>
            <g id="Group_1098742" data-name="Group 1098742" transform="translate(0)">
              <g id="Rectangle_400898" data-name="Rectangle 400898" transform="translate(0)" fill="none" stroke="#fff" stroke-width="2" opacity="0.859">
                <rect width="98" height="97.999" rx="48.999" stroke="none"/>
                <rect x="1" y="1" width="96" height="95.999" rx="47.999" fill="none"/>
              </g>
              <g id="Rectangle_400907-2" data-name="Rectangle 400907" transform="translate(0)" fill="none" stroke="#0f1f33" stroke-linecap="round" stroke-width="2">
                <rect width="98" height="97.999" rx="48.999" stroke="none"/>
                <rect x="1" y="1" width="96" height="95.999" rx="47.999" fill="none"/>
              </g>
            </g>
          </g>
        </g>
      </g>
    </g>
    <g id="_4" data-name="4" transform="translate(13267.965 -7227.026)">
      <g id="Group_1360055" data-name="Group 1360055" transform="translate(1.145 0.803)">
        <g id="Group_1360049" data-name="Group 1360049">
          <g id="Group_1360048" data-name="Group 1360048" transform="translate(2.569)">
            <path id="Path_1369622" data-name="Path 1369622" d="M83.466,52.192H41.846l0-5.055a20.81,20.81,0,1,1,41.62-.017Z" transform="translate(-40.687 -24.301)" fill="#ffb938"/>
            <path id="Path_1369623" data-name="Path 1369623" d="M203.484,35.385l-.011-26.8a9.58,9.58,0,0,0-8.867,0l.011,26.8h8.867Z" transform="translate(-177.081 -7.494)" fill="#ffe645"/>
            <path id="Path_1369624" data-name="Path 1369624" d="M222.591,8.587a9.579,9.579,0,0,0-6.573-.842,9.574,9.574,0,0,1,2.287.842l.011,26.8H222.6Z" transform="translate(-196.199 -7.501)" fill="#f5d60c"/>
            <g id="Group_1360047" data-name="Group 1360047" transform="translate(0 5.487)">
              <path id="Path_1369625" data-name="Path 1369625" d="M31.043,76.145l0,5.055h9.579l-.009-21.58a.81.81,0,0,0-1.314-.635A21.937,21.937,0,0,0,31.043,76.145Z" transform="translate(-31.043 -58.796)" fill="#ffe645"/>
              <path id="Path_1369626" data-name="Path 1369626" d="M84.673,59.62a.81.81,0,0,0-1.314-.635,22.16,22.16,0,0,0-2.971,2.875L80.4,81.2h4.286Z" transform="translate(-75.101 -58.796)" fill="#f5d60c"/>
              <path id="Path_1369627" data-name="Path 1369627" d="M351.632,59.517l.009,21.591h9.579l0-5.073a21.937,21.937,0,0,0-8.272-17.154A.81.81,0,0,0,351.632,59.517Z" transform="translate(-317.283 -58.703)" fill="#ffe645"/>
              <path id="Path_1369628" data-name="Path 1369628" d="M361.217,76.034a21.936,21.936,0,0,0-8.272-17.153.81.81,0,0,0-1.314.636v2.236a21.869,21.869,0,0,1,5.3,14.281l0,5.073h4.286Z" transform="translate(-317.282 -58.704)" fill="#f5d60c"/>
            </g>
          </g>
          <path id="Path_1369629" data-name="Path 1369629" d="M45.146,275.291l.754-.4a16.367,16.367,0,0,1,7.641-1.9,2.6,2.6,0,0,0,2.6-2.695,2.634,2.634,0,0,0-2.672-2.5H9.736a2.649,2.649,0,0,0-2.67,2.516,2.6,2.6,0,0,0,2.6,2.693,16.368,16.368,0,0,1,7.643,1.89l.754.4a16.369,16.369,0,0,0,7.643,1.89l11.795,0a16.369,16.369,0,0,0,7.641-1.9Z" transform="translate(-7.064 -239.914)" fill="#ffe645"/>
          <path id="Path_1369630" data-name="Path 1369630" d="M210.53,270.3a2.634,2.634,0,0,0-2.672-2.5h-4.286a2.634,2.634,0,0,1,2.672,2.5,2.6,2.6,0,0,1-2.6,2.695,16.366,16.366,0,0,0-7.641,1.9l-.754.4a16.367,16.367,0,0,1-7.641,1.9l-7.627,0,.118,0,11.795,0a16.367,16.367,0,0,0,7.641-1.9l.754-.4a16.367,16.367,0,0,1,7.641-1.9A2.6,2.6,0,0,0,210.53,270.3Z" transform="translate(-161.452 -239.914)" fill="#f5d60c"/>
        </g>
        <g id="Group_1360054" data-name="Group 1360054" transform="translate(11.596 32.765)">
          <g id="Group_1360053" data-name="Group 1360053">
            <g id="Group_1360050" data-name="Group 1360050" transform="translate(2.802)">
              <path id="Path_1369631" data-name="Path 1369631" d="M145.475,313.349a2.083,2.083,0,0,0-2.493,1.569l-1.441,6.336c-1.329,5.846,12.557,13.79,14.442,5.5l.3-1.309a2.437,2.437,0,0,1,4.753,1.081l-.3,1.309c-1.893,8.326,14.078,7.1,15.4,1.285l1.441-6.336a2.083,2.083,0,0,0-1.569-2.493Z" transform="translate(-141.451 -313.297)" fill="#9ef"/>
            </g>
            <g id="Group_1360051" data-name="Group 1360051" transform="translate(4.912 0)">
              <path id="Path_1369632" data-name="Path 1369632" d="M193.587,320.294l-30.532-6.944a2.08,2.08,0,0,0-1.914.539l28.161,6.4a2.083,2.083,0,0,1,1.569,2.493l-1.441,6.336c-.537,2.36-3.486,3.964-6.675,4.481,4.3.783,10.181-1.05,10.961-4.481l1.441-6.336A2.083,2.083,0,0,0,193.587,320.294Z" transform="translate(-161.141 -313.298)" fill="#82e2f5"/>
            </g>
            <g id="Group_1360052" data-name="Group 1360052" transform="translate(0 1.225)">
              <path id="Path_1369633" data-name="Path 1369633" d="M116.44,331.828l1.583.36,1.606-7.064-1.583-.36a1.469,1.469,0,0,0-1.758,1.107l-.955,4.2A1.469,1.469,0,0,0,116.44,331.828Z" transform="translate(-115.297 -324.728)" fill="#365dca"/>
              <path id="Path_1369634" data-name="Path 1369634" d="M466.815,402.223l-1.583-.36-1.606,7.064,1.583.36a1.469,1.469,0,0,0,1.758-1.106l.955-4.2A1.469,1.469,0,0,0,466.815,402.223Z" transform="translate(-426.305 -393.598)" fill="#365dca"/>
            </g>
          </g>
        </g>
      </g>
      <g id="Group_1360056" data-name="Group 1360056" transform="translate(0.434 0.001)">
        <path id="Path_1369635" data-name="Path 1369635" d="M54.849,43.639a2.445,2.445,0,0,0-1.419-1.005l-.91-.207a2.943,2.943,0,0,0-2.242-2.646L38.967,37.209c2.824-1.346,5.428-2.519,8.654-2.52,3.915,0,4.579-5.718.833-6.683l0-4.384A22.677,22.677,0,0,0,39.878,5.84a1.714,1.714,0,0,0-1.968-.032,21.348,21.348,0,0,0-7-3.154V1.889a.8.8,0,0,0-.432-.712,10.388,10.388,0,0,0-9.611,0,.8.8,0,0,0-.431.713v.765a21.338,21.338,0,0,0-7,3.16,1.713,1.713,0,0,0-1.968.033,22.978,22.978,0,0,0-4,4.126.8.8,0,0,0,1.285.966A21.534,21.534,0,0,1,12.4,7.159a.8.8,0,0,0,.077.207l.009,20.525H4.519l0-4.251a20.907,20.907,0,0,1,2.166-9.331.8.8,0,0,0-1.442-.71A22.5,22.5,0,0,0,2.91,23.64l0,4.371c-3.743,1.011-3.071,6.7.845,6.7,3.3,0,5.941,1.265,8.84,2.6l-.6,2.65a2.345,2.345,0,0,0,1.712,2.72l1.067.243a8.074,8.074,0,0,0,2.534,4.573,13.992,13.992,0,0,0,6.484,3.687c3.669.835,6.311-.651,7.067-3.975l.3-1.309a1.634,1.634,0,0,1,3.186.725l-.3,1.309a4.986,4.986,0,0,0,1.139,4.832,8.622,8.622,0,0,0,6.178,2.1,14.6,14.6,0,0,0,2.708-.259.8.8,0,0,0-.3-1.579c-3.089.585-6.074.033-7.43-1.373a3.459,3.459,0,0,1-.729-3.36l.3-1.309c.926-4.07-5.394-5.512-6.32-1.437l-.3,1.309c-.388,1.706-1.6,3.571-5.143,2.764-3.957-.9-8.416-4.9-7.731-7.909l1.441-6.336h0a1.281,1.281,0,0,1,1.532-.963l30.532,6.944a1.3,1.3,0,0,1,.964,1.532l-1.441,6.336a4.235,4.235,0,0,1-1.989,2.431A.8.8,0,0,0,48.314,53a6.644,6.644,0,0,0,2.08-1.984l1.073.244a2.32,2.32,0,0,0,2.72-1.712l.955-4.2a2.258,2.258,0,0,0-.293-1.714ZM38.875,7.1a21.078,21.078,0,0,1,7.97,16.526l0,4.269H38.875L38.865,7.1s.01-.007.01-.006Zm-1.615.219.009,20.577H30.92L30.91,4.314a19.77,19.77,0,0,1,6.349,3ZM29.3,2.391l.011,25.5h-7.26l-.011-25.5a8.782,8.782,0,0,1,7.26,0ZM14.089,7.322a19.754,19.754,0,0,1,6.347-3l.01,23.572H14.1ZM14.063,41.11a.665.665,0,0,1-.5-.8l.955-4.2a.709.709,0,0,1,.8-.5l.8.182-1.25,5.5Zm2.518-6.857-.911-.207A2.275,2.275,0,0,0,12.963,35.7c-2.97-1.448-5.825-2.6-9.206-2.6-2.345,0-2.288-3.6.059-3.6H47.551c2.332,0,2.425,3.582.07,3.583-4.01,0-7.886,1.72-11.414,3.5L19.746,32.837a2.892,2.892,0,0,0-3.165,1.417ZM53.575,45l-.955,4.2a.666.666,0,0,1-.8.5l-.8-.182,1-4.4.25-1.1.8.182A.665.665,0,0,1,53.575,45Z" transform="translate(-0.434 -0.001)"/>
        <path id="Path_1369636" data-name="Path 1369636" d="M173.321,348.749l3.239-2.038a.8.8,0,0,0-.856-1.36l-3.239,2.038C171.564,347.956,172.476,349.281,173.321,348.749Z" transform="translate(-153.7 -308.232)"/>
        <path id="Path_1369637" data-name="Path 1369637" d="M176.212,362.2a.8.8,0,0,0,.427-.124l7.824-4.925a.8.8,0,0,0-.856-1.36l-7.824,4.925A.815.815,0,0,0,176.212,362.2Z" transform="translate(-156.683 -317.558)"/>
        <path id="Path_1369638" data-name="Path 1369638" d="M351.061,389.17l3.239-2.038a.8.8,0,0,0-.856-1.36l-3.239,2.038C349.3,388.377,350.217,389.7,351.061,389.17Z" transform="translate(-312.397 -344.323)"/>
        <path id="Path_1369639" data-name="Path 1369639" d="M353.951,402.625a.8.8,0,0,0,.427-.124l7.824-4.925a.8.8,0,0,0-.856-1.36l-7.824,4.925A.815.815,0,0,0,353.951,402.625Z" transform="translate(-315.379 -353.648)"/>
      </g>
    </g>
  </g>
</svg>
